# xmcd
#
# Track frame offsets:
#	150
#	15184
#	35216
#	52691
#	67788
#	80536
#	101393
#	117877
#	137280
#	153486
#	168203
#	185990
#	201931
#	220523
#	237211
#	258820
#	275888
#	288324
#	304567
#	320287
#	339959
#
# Disc length: 4739
#
# Revision: 1
# Processed by: cddbd v1.5.1PL0 Copyright (c) Steve Scherf et al.
# Submitted via: dBpowerAMP V4.0
# Normalized: r0:TDELIM( - )
#
DISCID=14128115
DTITLE=multi - mélodies d'amour
DYEAR=2004
DGENRE=compil
TTITLE0=Mike Brant - Laisse-moi t'aimer
TTITLE1=Hélène Segara - Il y a trop de gens qui t'aiment
TTITLE2=Pierre Bachelet - Elle est d'ailleurs
TTITLE3=Chimène Badi - Entre- nous
TTITLE4=Renaud - Mistral gagnant
TTITLE5=Johnny Hallyday - Je te promets
TTITLE6=Il était une fois - J'ai encore rêvé d'elle
TTITLE7=Patricia Kass - Je voudrais la connaitre
TTITLE8=Daniel Balavoine - Me laisses pas m'en aller
TTITLE9=Didier Barbelivien - Elle
TTITLE10=Jessica Marquez - Je t'aime comme ça
TTITLE11=Michel Sardou - La maladie d'amour
TTITLE12=Christophe - Les mots bleus
TTITLE13=Sandy - J'ai faim de toi
TTITLE14=C.Michel Schoenberg - Le premier pas
TTITLE15=Léo Ferret - C'est extra
TTITLE16=Francis Cabrel - Je l'aime à mourir
TTITLE17=Hervé Vilard - Nous
TTITLE18=Eddy Mitchell - Y'a rien qui remplace un amour
TTITLE19=Bonnie Tyler - Si tout s'arrête
TTITLE20=Isabelle Boulay - Quand j'aime une fois
EXTD=compil le forum de LISA
EXTT0=
EXTT1=
EXTT2=
EXTT3=
EXTT4=
EXTT5=
EXTT6=
EXTT7=
EXTT8=
EXTT9=
EXTT10=
EXTT11=
EXTT12=
EXTT13=
EXTT14=
EXTT15=
EXTT16=
EXTT17=
EXTT18=
EXTT19=
EXTT20=
PLAYORDER=
